<mxfile host="app.diagrams.net" modified="2024-03-28T06:11:57.575Z" agent="Mozilla/5.0 (Windows NT 10.0; Win64; x64) AppleWebKit/537.36 (KHTML, like Gecko) Chrome/123.0.0.0 Safari/537.36" version="24.0.7" etag="G1cnwrrjL_fqvxgymgQr" type="github">
  <diagram name="Page-1" id="1ljRe4HX_YtVqBk1OJ3X">
    <mxGraphModel>
      <root>
        <mxCell id="0" />
        <mxCell id="1" parent="0" />
      </root>
    </mxGraphModel>
  </diagram>
</mxfile>
